<svg width="50" height="50" viewBox="0 0 50 50" fill="none" xmlns="http://www.w3.org/2000/svg">
<path d="M45.8334 4.16666H4.16669V45.8333H45.8334V4.16666ZM16.6667 41.6667H8.33335V33.3333H16.6667V41.6667ZM16.6667 29.1667H8.33335V20.8333H16.6667V29.1667ZM16.6667 16.6667H8.33335V8.33332H16.6667V16.6667ZM29.1667 41.6667H20.8334V33.3333H29.1667V41.6667ZM29.1667 29.1667H20.8334V20.8333H29.1667V29.1667ZM29.1667 16.6667H20.8334V8.33332H29.1667V16.6667ZM41.6667 41.6667H33.3334V33.3333H41.6667V41.6667ZM41.6667 29.1667H33.3334V20.8333H41.6667V29.1667ZM41.6667 16.6667H33.3334V8.33332H41.6667V16.6667Z" fill="#353535" fill-opacity="0.7"/>
</svg>
