<svg width="50" height="50" viewBox="0 0 50 50" fill="none" xmlns="http://www.w3.org/2000/svg">
<path d="M25 4.16666C13.5 4.16666 4.16669 13.5 4.16669 25C4.16669 36.5 13.5 45.8333 25 45.8333C36.5 45.8333 45.8334 36.5 45.8334 25C45.8334 13.5 36.5 4.16666 25 4.16666ZM27.0834 39.5833H22.9167V35.4167H27.0834V39.5833ZM31.3959 23.4375L29.5209 25.3542C28.0209 26.875 27.0834 28.125 27.0834 31.25H22.9167V30.2083C22.9167 27.9167 23.8542 25.8333 25.3542 24.3125L27.9375 21.6875C28.7084 20.9375 29.1667 19.8958 29.1667 18.75C29.1667 16.4583 27.2917 14.5833 25 14.5833C22.7084 14.5833 20.8334 16.4583 20.8334 18.75H16.6667C16.6667 14.1458 20.3959 10.4167 25 10.4167C29.6042 10.4167 33.3334 14.1458 33.3334 18.75C33.3334 20.5833 32.5834 22.25 31.3959 23.4375Z" fill="#353535" fill-opacity="0.7"/>
</svg>
