<svg width="50" height="50" viewBox="0 0 50 50" fill="none" xmlns="http://www.w3.org/2000/svg">
<path d="M25 6.25C14.6458 6.25 6.25 14.6458 6.25 25C6.25 35.3542 14.6458 43.75 25 43.75C26.7292 43.75 28.125 42.3542 28.125 40.625C28.125 39.8125 27.8125 39.0833 27.3125 38.5208C26.8333 37.9792 26.5208 37.25 26.5208 36.4583C26.5208 34.7292 27.9167 33.3333 29.6458 33.3333H33.3333C39.0833 33.3333 43.75 28.6667 43.75 22.9167C43.75 13.7083 35.3542 6.25 25 6.25ZM13.5417 25C11.8125 25 10.4167 23.6042 10.4167 21.875C10.4167 20.1458 11.8125 18.75 13.5417 18.75C15.2708 18.75 16.6667 20.1458 16.6667 21.875C16.6667 23.6042 15.2708 25 13.5417 25ZM19.7917 16.6667C18.0625 16.6667 16.6667 15.2708 16.6667 13.5417C16.6667 11.8125 18.0625 10.4167 19.7917 10.4167C21.5208 10.4167 22.9167 11.8125 22.9167 13.5417C22.9167 15.2708 21.5208 16.6667 19.7917 16.6667ZM30.2083 16.6667C28.4792 16.6667 27.0833 15.2708 27.0833 13.5417C27.0833 11.8125 28.4792 10.4167 30.2083 10.4167C31.9375 10.4167 33.3333 11.8125 33.3333 13.5417C33.3333 15.2708 31.9375 16.6667 30.2083 16.6667ZM36.4583 25C34.7292 25 33.3333 23.6042 33.3333 21.875C33.3333 20.1458 34.7292 18.75 36.4583 18.75C38.1875 18.75 39.5833 20.1458 39.5833 21.875C39.5833 23.6042 38.1875 25 36.4583 25Z" fill="#353535" fill-opacity="0.7"/>
</svg>
