<svg width="50" height="50" viewBox="0 0 50 50" fill="none" xmlns="http://www.w3.org/2000/svg">
<path d="M40.5 27.0625L40.4792 27.1042C40.5625 26.4167 40.6459 25.7083 40.6459 25C40.6459 24.2917 40.5834 23.625 40.5 22.9375L40.5209 22.9792L45.6042 18.9792L40.5417 10.1875L34.5625 12.6042L34.5834 12.625C33.5 11.7917 32.3125 11.0833 31.0209 10.5417H31.0417L30.0834 4.16666H19.9375L19.0209 10.5625H19.0417C17.75 11.1042 16.5625 11.8125 15.4792 12.6458L15.5 12.625L9.50002 10.1875L4.41669 18.9792L9.50002 22.9792L9.52085 22.9375C9.43752 23.625 9.37502 24.2917 9.37502 25C9.37502 25.7083 9.43752 26.4167 9.54169 27.1042L9.52085 27.0625L5.14585 30.5L4.45835 31.0417L9.52085 39.7917L15.5209 37.3958L15.4792 37.3125C16.5834 38.1667 17.7709 38.875 19.0834 39.4167H19.0209L19.9584 45.8333H30.0625C30.0625 45.8333 30.125 45.4583 30.1875 44.9583L30.9792 39.4375H30.9584C32.25 38.8958 33.4584 38.1875 34.5625 37.3333L34.5209 37.4167L40.5209 39.8125L45.5833 31.0625C45.5833 31.0625 45.2917 30.8125 44.8959 30.5208L40.5 27.0625ZM25 32.2917C20.9792 32.2917 17.7084 29.0208 17.7084 25C17.7084 20.9792 20.9792 17.7083 25 17.7083C29.0209 17.7083 32.2917 20.9792 32.2917 25C32.2917 29.0208 29.0209 32.2917 25 32.2917Z" fill="#353535" fill-opacity="0.7"/>
</svg>
